<?xml version="1.0" encoding="utf-8"?>
<!-- Generator: Adobe Illustrator 22.0.0, SVG Export Plug-In . SVG Version: 6.00 Build 0)  -->
<svg version="1.1" id="Layer_1" xmlns="http://www.w3.org/2000/svg" xmlns:xlink="http://www.w3.org/1999/xlink" x="0px" y="0px"
	 viewBox="0 0 100 100" style="enable-background:new 0 0 100 100;" xml:space="preserve">
<style type="text/css">
	.st0{fill:#E73900;}
	.st1{fill:#E78C00;}
	.st2{fill:#E7E100;}
	.st3{fill:#FFFF9E;}
	.st4{fill:#ECECEC;stroke:#000000;stroke-width:3;}
	.st5{fill:#CCCCCC;}
	.st6{fill:#FF0000;stroke:#000000;stroke-width:3;}
	.st7{fill:#B3B3B3;stroke:#000000;stroke-width:3;}
	.st8{fill:#D20000;}
	.st9{fill:#999999;}
	.st10{fill:none;stroke:#000000;stroke-width:3;}
	.st11{fill:#FF0000;stroke:#000000;stroke-width:3;stroke-linecap:round;}
	.st12{fill:#FFFFFF;}
</style>
<path id="svg_27" class="st0" d="M47.6,64.1C38.7,79.6,33.6,76.7,18,94.4C23.3,84,32.3,73.7,34.1,69.8c1.5-3,3.9-6,6.7-8.7
	c2.2-2.2,3.7-6,6.1-7.7C45.3,58.2,50.4,59.1,47.6,64.1z"/>
<path id="svg_26" class="st0" d="M46.1,55.6c-2.3,2.3-2.2,4.5-3.5,6.8c-0.6,2.2-2.5,4.6-4.6,6.7C34.6,72.6,13,91.6,5.7,95.2
	c9.1-7.7,18.5-20.6,21.1-25.4c2.1-3.6,5.2-7.2,8.7-10.2c2.7-2.5,5.2-3.1,8-5C45.3,53.8,46.1,54.3,46.1,55.6z"/>
<path id="svg_25" class="st0" d="M46.6,53.7c-2.3,1.7-5,5.5-6.7,7.6c-1.2,2.2-3.3,4.2-5.4,5.8C31.1,69.8,16.9,84,4.7,85.2
	c14.2-5.7,19.4-16.6,22.9-20.9c2.7-3.2,5.9-6.2,9.2-8.2C41.2,53.2,45.5,53.4,46.6,53.7z"/>
<path id="svg_24" class="st1" d="M46.3,55.8c-1.9,1.9-1.8,3.6-3,5.5c-0.5,1.7-2.1,3.7-3.8,5.4c-2.7,2.8-18.6,16.3-25.9,21.7
	c15-13.7,14.9-17,17.1-20.8c1.8-2.9,4.3-5.8,7.1-8.3c2.2-2,4.6-3.5,6.8-5.1C46.1,53.6,46.3,54.9,46.3,55.8z"/>
<path id="svg_23" class="st1" d="M47,62c-4.9,11.8-9.2,8.6-19.8,21.1c4.3-6.5,7.4-11.5,10.8-15.8c0.8-2,6.9-12.3,8.6-13.7
	C46.1,56.7,48.4,58.6,47,62z"/>
<path id="svg_22" class="st2" d="M45.8,61.8c-2.6,6.7-6.8,7.9-12.6,13.6c4.5-5.6,3.9-8.7,7-11.7c0.6-1.2,5.5-9.2,6.5-9.9
	C46.1,55.9,46.8,59.3,45.8,61.8z"/>
<path id="svg_21" class="st1" d="M41.9,59.2c-0.9,1.6-2.5,3.1-4.1,4.4c-2.5,2-16.2,13.5-20.5,14.6c6.3-4,12.8-13.5,15.3-16.7
	c2-2.4,4.6-5.1,6.9-6.2c3.5-1.6,6.1-1.9,7.1-1.6C47.7,53.3,43.2,57.6,41.9,59.2z"/>
<path id="svg_20" class="st2" d="M46.5,55.7c-1.2,1.1-1.2,2.2-1.9,3.4c-0.4,1.1-1.4,2.3-2.4,3.3c-1.7,1.7-12.3,12.4-15.9,14.1
	c4.6-3.8,9.2-11.5,10.7-13.8c1.1-1.8,2.7-3.5,4.5-5c1.4-1.2,2.8-2.1,4.2-3C46.4,54.3,46.5,55.1,46.5,55.7z"/>
<path id="svg_19" class="st2" d="M46.2,55.2c-1,0.6-1.7,1.8-2.6,2.7c-0.8,1-1.8,1.8-2.7,2.3c-1.5,0.9-11.2,9.5-13.3,9.4
	C31.1,68,36.2,59.3,38,57.4c1.4-1.3,4-2.5,5.4-3.1c1.1-0.6,2.5-0.8,3.5-1C46.8,54.1,46.6,54.5,46.2,55.2z"/>
<path id="svg_18" class="st3" d="M45.6,56.5c-2,3.4-5.3,6.2-8.9,9.2c2.1-2.4,4.2-5.7,4.8-6.9c0.5-0.9,1.2-1.9,2.1-2.7
	c0.7-0.7,1.7-1.4,2.4-1.9C45.6,55.7,46.5,54.9,45.6,56.5z"/>
<path id="svg_17" class="st3" d="M43.5,57c-3.5,2.4-5.2,5.2-8.8,6.2c2.5-1.7,5-6,6.2-7c2.1-1.8,4.7-2.1,5.1-2
	C44.4,55.7,45.1,55.9,43.5,57z"/>
<path id="path3217" class="st4" d="M94.2,9.1C90,8.8,56.8,7.5,38.4,51.2l12.8,13l0,0c44-17.5,43.3-50.8,43.1-54.9L94.2,9.1z"/>
<path id="path3219" class="st5" d="M74.5,29.5c-2.7-2.7-7.2-2.6-10.2,0.3c-3,2.9-3.2,7.5-0.5,10.2c2.7,2.7,7.2,2.6,10.2-0.3
	C76.9,36.8,77.2,32.2,74.5,29.5z M73.9,30.1c2.4,2.4,2.2,6.4-0.5,9c-2.6,2.6-6.6,2.7-9,0.3c-2.4-2.4-2.2-6.4,0.5-9
	C67.5,27.8,71.5,27.7,73.9,30.1z"/>
<path id="path2419" class="st6" d="M72.8,13l9.4-3L92,9l2.3,0.2l-0.7,10l-2.9,10.1l-1.1,1.6L72.4,13.2"/>
<path id="path2408" class="st6" d="M47,34.9c0,0-7.6-7.9-24.5,18c0,0,18.4-17.2,20.3-10.9"/>
<path id="path2410" class="st6" d="M67.8,56c0,0,7.8,7.7-18.4,24.2c0,0,17.6-18.1,11.3-20.1"/>
<path id="path2423" class="st7" d="M41,45l-2.5,6.2l13,13l5.8-2.7L41,45z"/>
<path id="path3209" class="st8" d="M67.4,60l-5.5,2.5l-0.1-1.7l-1.5-0.6l7.4-4.5l1.1,3.8c0,0,1,7.6-18.7,20.2
	C69,65.2,67.3,59.9,67.4,60z"/>
<path id="path3213" class="st8" d="M22.5,52.4c0,0,16.7-17.9,21.7-12.9c0.5,0.5-1.4,2.4-1.4,2.4l-2.4-1.5L33.6,44L22.5,52.4z"/>
<path id="path3232" class="st9" d="M52.5,56.7c-0.7,1.2-1.9,2.7-3.9,4.6c0,0.1,0.1,0.2,0.1,0.3l2.6,2.7l4.7-2.2
	c0.2-0.3,0.5-0.7,0.7-1L52.5,56.7z"/>
<path id="path3227" class="st5" d="M59.1,46.5c-0.4-0.5-0.8-0.8-0.8-0.8l-6.5,5.7c0,0,2.1,1.4,0.3,4.8l4.3,4.3
	C62.1,52.2,60.4,48.1,59.1,46.5z"/>
<path id="path3241" class="st5" d="M40.8,45.5l-2.5,5.4l1.8,2.2l3.9-5L40.8,45.5z"/>
<path id="path2394" class="st10" d="M72.7,13.1l17,17.3"/>
<path id="path2417" class="st10" d="M41.1,45.3l16.1,16.4"/>
<path id="rect2414" class="st11" d="M56.9,44.6l1.3,1.3L36.6,67.2l-1.3-1.3L56.9,44.6z"/>
<path id="path2425" class="st5" d="M57.5,59.8c0,0,20.5-8.6,30.1-27.2C62.6,57.5,52.7,54.9,52.7,54.9L57.5,59.8z"/>
<polygon id="rect2429" class="st12" points="73.8,31.8 73.6,35.5 64.7,35.8 64.9,32.1 "/>
<path id="path2437" class="st8" d="M89.1,27.5c0,0,4.2-8.7,3.4-16.4c-4.4,12.2-8,11.7-8,11.7L89.1,27.5z"/>
<path id="path3211" class="st10" d="M67.8,56c0,0,7.8,7.7-18.4,24.2c0,0,17.6-18.1,11.3-20.1"/>
<path id="path3215" class="st10" d="M47,34.9c0,0-7.6-7.9-24.5,18c0,0,18.4-17.2,20.3-10.9"/>
<path id="path3237" class="st12" d="M75.1,12.7c0,0,12.1-4.2,17.4-3.1C97.9,10.8,75,13,75.1,12.7z"/>
<path id="path3239" class="st12" d="M50.9,32c-0.1-0.4,9.9-13,20.5-16.5c4,0.3,6,4.3,5,4.9C68.4,25.9,51.5,34.2,50.9,32z"/>
<path id="path2382" class="st10" d="M94.2,9.1C90,8.8,56.8,7.5,38.4,51.2l12.8,13l0,0c44-17.5,43.3-50.8,43.1-54.9L94.2,9.1z"/>
<g>
</g>
<g>
</g>
<g>
</g>
<g>
</g>
<g>
</g>
<g>
</g>
<g>
</g>
<g>
</g>
<g>
</g>
<g>
</g>
<g>
</g>
</svg>
